<?xml version="1.0" encoding="UTF-8" ?>
<!DOCTYPE svg PUBLIC "-//W3C//DTD SVG 1.1//EN" "http://www.w3.org/Graphics/SVG/1.1/DTD/svg11.dtd">
<svg width="401pt" height="67pt" viewBox="0 0 401 67" version="1.1" xmlns="http://www.w3.org/2000/svg">
<path fill="#fefefe" d=" M 0.00 0.00 L 401.00 0.00 L 401.00 67.00 L 0.00 67.00 L 0.00 0.00 Z" />
<path fill="#37474f" d=" M 6.82 12.84 C 10.92 7.12 19.14 6.67 25.31 8.68 C 31.75 11.29 33.04 18.99 33.38 25.12 C 30.83 25.11 28.29 25.08 25.74 25.06 C 25.55 22.01 25.88 18.64 24.07 15.98 C 22.25 13.48 18.73 13.62 16.01 14.12 C 12.53 14.95 11.32 18.81 10.88 21.93 C 10.46 27.58 10.82 33.26 10.71 38.93 C 10.78 43.51 10.30 48.40 12.37 52.65 C 14.40 57.54 22.54 57.35 24.60 52.60 C 26.15 49.02 26.09 45.01 26.29 41.19 C 23.71 41.08 21.13 40.97 18.55 40.93 C 18.57 38.90 18.58 36.86 18.58 34.83 C 23.59 34.97 28.61 34.87 33.62 34.93 C 33.57 43.98 33.63 53.02 33.58 62.07 C 31.69 62.03 29.81 61.98 27.92 61.94 C 27.36 60.00 26.77 58.07 26.20 56.14 C 24.92 58.40 23.81 61.31 21.01 62.02 C 15.68 63.16 9.15 61.58 6.31 56.55 C 2.57 50.03 3.39 42.23 3.27 35.02 C 3.42 27.58 2.38 19.34 6.82 12.84 Z" />
<path fill="#37474f" d=" M 125.29 8.00 C 130.54 8.08 135.81 7.75 141.06 8.17 C 145.89 8.67 150.10 12.30 151.04 17.12 C 152.21 22.91 152.57 30.35 147.54 34.49 C 143.48 38.14 137.67 36.88 132.70 37.12 C 132.74 45.42 132.75 53.71 132.69 62.01 C 130.23 62.02 127.78 62.03 125.33 62.05 C 125.24 44.04 125.31 26.02 125.29 8.00 Z" />
<path fill="#37474f" d=" M 239.84 11.80 C 244.00 6.87 251.54 6.80 257.17 8.80 C 262.47 10.72 264.75 16.30 265.55 21.46 C 263.01 22.15 260.44 22.78 257.88 23.39 C 257.53 19.85 256.51 15.58 252.81 14.17 C 250.23 13.51 246.68 13.54 245.21 16.17 C 243.77 19.15 244.20 23.08 246.49 25.53 C 252.16 31.79 261.14 35.31 264.24 43.68 C 266.71 49.92 265.21 58.94 258.17 61.41 C 252.47 63.14 245.10 62.90 240.95 58.03 C 238.12 54.92 237.48 50.63 236.55 46.69 C 239.13 46.04 241.72 45.40 244.29 44.73 C 244.63 47.72 244.89 50.89 246.64 53.45 C 248.40 56.40 252.57 56.84 255.47 55.49 C 259.00 53.05 258.37 47.28 255.76 44.33 C 251.32 39.37 245.50 35.89 240.72 31.30 C 236.15 26.05 235.09 17.29 239.84 11.80 Z" />
<path fill="#37474f" d=" M 373.14 8.00 C 375.62 8.00 378.11 8.00 380.59 8.01 C 380.57 14.67 380.62 21.33 380.57 27.99 C 383.46 25.49 386.96 23.17 390.99 23.69 C 394.22 23.69 395.97 27.13 395.73 30.00 C 395.67 40.68 395.77 51.36 395.66 62.04 C 393.22 62.04 390.78 62.04 388.34 62.04 C 388.10 51.65 388.57 41.24 388.13 30.85 C 385.93 28.58 382.72 30.43 380.57 31.79 C 380.61 41.88 380.58 51.98 380.60 62.07 C 378.12 62.04 375.64 62.02 373.17 62.04 C 373.14 44.03 373.15 26.02 373.14 8.00 Z" />
<path fill="#37474f" d=" M 206.54 10.00 C 208.95 9.98 211.36 9.98 213.78 9.96 C 213.87 14.61 213.85 19.28 213.84 23.94 C 215.80 23.97 217.77 24.00 219.74 24.02 C 219.71 26.05 219.68 28.07 219.66 30.10 C 217.71 30.11 215.76 30.13 213.82 30.16 C 213.88 36.45 213.85 42.74 213.82 49.04 C 213.81 51.30 213.89 53.65 214.86 55.74 C 216.47 56.17 218.14 56.12 219.79 56.21 C 219.73 58.20 219.68 60.19 219.64 62.18 C 216.38 62.15 212.77 62.98 209.82 61.21 C 207.26 59.85 206.64 56.67 206.57 54.03 C 206.54 46.07 206.64 38.10 206.54 30.14 C 205.26 30.13 203.97 30.12 202.69 30.11 C 202.71 28.07 202.72 26.03 202.72 23.99 C 203.69 23.99 205.62 23.98 206.59 23.98 C 206.58 19.32 206.56 14.66 206.54 10.00 Z" />
<path fill="#fefefe" d=" M 132.67 14.05 C 136.27 14.36 141.22 13.81 143.32 17.47 C 144.55 21.04 145.12 25.53 142.90 28.83 C 140.24 31.48 136.11 30.94 132.67 31.02 C 132.70 25.36 132.78 19.70 132.67 14.05 Z" />
<path fill="#37474f" d=" M 40.61 29.75 C 43.18 21.74 56.65 21.33 59.78 29.10 C 61.80 33.43 61.53 38.33 61.74 42.99 C 56.63 43.04 51.52 43.01 46.42 43.00 C 46.60 47.05 45.72 51.51 47.87 55.19 C 49.15 56.43 51.12 56.40 52.65 55.67 C 54.32 53.79 54.05 51.02 54.47 48.69 C 56.87 48.70 59.27 48.69 61.68 48.66 C 61.76 53.48 60.57 59.29 55.75 61.52 C 51.26 62.93 45.42 62.91 42.13 59.03 C 39.98 55.71 39.39 51.68 39.04 47.81 C 38.58 41.79 38.67 35.53 40.61 29.75 Z" />
<path fill="#37474f" d=" M 67.57 23.98 C 70.16 23.97 72.75 24.03 75.34 24.11 C 75.18 25.37 75.02 26.62 74.86 27.88 C 78.08 25.50 81.79 22.98 86.03 23.76 C 89.01 24.05 90.36 27.32 90.25 29.96 C 90.31 40.63 90.21 51.31 90.31 61.98 C 87.77 62.00 85.23 62.02 82.69 62.04 C 82.62 51.39 83.02 40.73 82.48 30.10 C 80.08 29.52 76.49 29.67 75.34 32.14 C 74.99 42.04 75.30 51.98 75.20 61.89 C 72.66 61.98 70.12 62.05 67.58 62.10 C 67.56 49.39 67.59 36.68 67.57 23.98 Z" />
<path fill="#37474f" d=" M 98.03 29.99 C 100.02 23.00 109.91 21.77 115.01 25.89 C 119.45 30.41 118.93 37.21 119.40 43.04 C 114.22 43.02 109.04 42.97 103.85 43.05 C 103.88 46.75 103.62 50.57 104.80 54.14 C 105.56 56.72 108.51 55.98 110.51 55.84 C 111.33 53.53 111.72 51.11 111.92 48.67 C 114.41 48.69 116.91 48.70 119.41 48.74 C 119.05 53.73 117.90 59.99 112.46 61.82 C 108.64 62.69 104.01 62.87 100.86 60.13 C 97.69 57.41 97.15 52.93 96.66 49.03 C 96.31 42.69 95.95 36.09 98.03 29.99 Z" />
<path fill="#37474f" d=" M 155.83 24.05 C 158.34 24.01 160.86 23.99 163.38 23.98 C 163.43 25.66 163.49 27.35 163.58 29.03 C 165.59 25.80 168.74 23.26 172.76 23.45 C 172.80 26.26 172.89 29.07 172.97 31.88 C 169.60 31.41 164.24 30.86 163.53 35.37 C 163.30 44.27 163.51 53.18 163.47 62.08 C 160.91 62.05 158.36 62.01 155.81 61.94 C 155.84 49.31 155.83 36.68 155.83 24.05 Z" />
<path fill="#37474f" d=" M 181.40 24.46 C 185.55 23.27 190.59 23.06 194.24 25.72 C 198.54 29.92 198.19 36.47 198.19 42.02 C 198.06 47.77 198.91 54.33 195.16 59.20 C 192.12 62.96 186.60 62.73 182.32 61.81 C 177.46 60.67 175.61 55.28 175.44 50.83 C 175.35 45.58 175.38 40.33 175.44 35.09 C 175.64 30.96 177.17 26.05 181.40 24.46 Z" />
<path fill="#37474f" d=" M 272.67 27.68 C 274.14 25.08 277.16 23.75 280.06 23.70 C 283.31 23.49 287.18 23.85 289.27 26.70 C 292.85 31.29 292.51 37.42 292.80 42.92 C 287.67 43.07 282.55 42.97 277.42 43.04 C 277.30 47.24 277.27 51.52 278.69 55.55 C 280.46 55.77 282.83 56.88 284.15 55.08 C 285.16 53.11 285.16 50.81 285.51 48.67 C 287.90 48.70 290.29 48.70 292.69 48.70 C 292.66 53.51 291.62 59.49 286.59 61.51 C 282.34 62.97 276.80 62.83 273.48 59.42 C 270.05 54.68 270.20 48.55 269.79 42.98 C 269.92 37.82 270.01 32.27 272.67 27.68 Z" />
<path fill="#37474f" d=" M 301.74 25.77 C 304.31 23.61 307.85 23.46 311.04 23.76 C 315.71 24.08 319.61 28.25 320.11 32.83 C 320.83 42.51 319.38 52.34 321.19 61.94 C 318.70 61.97 316.22 61.99 313.73 61.96 C 313.46 60.02 313.22 58.08 313.05 56.13 C 311.21 59.03 309.01 62.84 304.96 62.34 C 298.81 62.22 296.00 54.50 298.29 49.47 C 300.21 42.97 307.35 40.94 312.88 38.55 C 312.76 35.96 312.53 33.37 312.26 30.80 C 310.18 30.14 307.54 29.00 305.85 31.05 C 305.37 32.60 305.28 34.23 305.10 35.82 C 302.53 35.85 299.96 35.87 297.40 35.82 C 297.79 32.17 298.67 28.13 301.74 25.77 Z" />
<path fill="#37474f" d=" M 326.79 24.05 C 329.31 24.01 331.82 23.99 334.34 23.98 C 334.41 25.72 334.49 27.46 334.57 29.20 C 336.42 25.77 339.75 23.26 343.82 23.47 C 343.84 26.37 343.83 29.26 343.86 32.16 C 341.34 31.52 338.75 31.42 336.26 32.20 C 335.67 33.03 335.09 33.86 334.51 34.68 C 334.31 43.80 334.49 52.92 334.45 62.05 C 331.90 62.02 329.35 62.00 326.81 61.94 C 326.84 49.31 326.84 36.68 326.79 24.05 Z" />
<path fill="#37474f" d=" M 348.01 27.98 C 350.94 23.06 357.67 22.86 362.53 24.54 C 367.43 26.78 368.05 32.85 368.42 37.57 C 365.92 37.57 363.42 37.57 360.93 37.59 C 360.66 35.14 360.26 32.69 359.49 30.34 C 357.96 30.22 356.43 30.14 354.92 30.08 C 354.59 30.56 353.95 31.52 353.62 32.00 C 352.61 38.82 352.37 45.89 353.38 52.71 C 353.53 55.54 356.37 56.86 358.86 55.82 C 361.07 54.28 360.50 51.18 360.82 48.86 C 363.34 48.91 365.86 48.92 368.38 48.93 C 368.02 52.95 367.54 57.50 364.25 60.30 C 360.84 62.81 356.12 62.77 352.21 61.66 C 346.63 59.24 345.79 52.34 345.52 47.00 C 345.59 40.64 344.91 33.79 348.01 27.98 Z" />
<path fill="#fefefe" d=" M 46.35 38.98 C 46.66 35.88 45.86 30.27 50.11 29.85 C 54.91 29.68 53.62 35.76 54.36 38.86 C 51.69 38.95 49.02 39.00 46.35 38.98 Z" />
<path fill="#fefefe" d=" M 105.15 31.14 C 106.26 29.24 108.66 30.14 110.40 30.24 C 111.40 33.04 111.65 36.01 111.69 38.96 C 109.04 38.99 106.39 38.99 103.74 38.94 C 104.07 36.35 103.77 33.46 105.15 31.14 Z" />
<path fill="#fefefe" d=" M 183.11 32.97 C 183.22 29.50 186.98 29.84 189.45 30.27 C 191.31 35.29 190.35 40.72 190.59 45.94 C 190.41 49.06 191.17 52.58 189.30 55.33 C 187.74 56.85 185.46 55.79 183.64 55.43 C 182.18 48.07 182.50 40.41 183.11 32.97 Z" />
<path fill="#fefefe" d=" M 278.61 30.39 C 280.44 30.17 282.68 29.30 284.10 30.97 C 285.17 33.46 285.13 36.24 285.31 38.90 C 282.63 38.98 279.95 39.00 277.28 38.95 C 277.37 36.05 277.79 33.18 278.61 30.39 Z" />
<path fill="#fefefe" d=" M 312.62 43.28 C 312.75 47.02 312.76 50.77 312.64 54.51 C 310.62 55.96 307.12 57.29 305.55 54.55 C 304.89 52.25 304.82 49.35 306.68 47.56 C 308.45 45.86 310.61 44.65 312.62 43.28 Z" />
</svg>
